<?xml version="1.0" encoding="UTF-8" ?>
<!DOCTYPE svg PUBLIC "-//W3C//DTD SVG 1.1//EN" "http://www.w3.org/Graphics/SVG/1.1/DTD/svg11.dtd">
<svg width="1325pt" height="784pt" viewBox="0 0 1325 784" version="1.1" xmlns="http://www.w3.org/2000/svg">
<g id="#ffffffff">
<path fill="#ffffff" opacity="1.00" d=" M 360.91 145.06 C 361.74 133.30 372.13 122.85 384.02 122.57 C 393.75 121.78 403.53 127.42 407.61 136.30 C 409.57 140.24 410.13 144.70 410.18 149.06 C 410.30 243.00 410.08 336.93 410.33 430.87 C 393.82 430.71 377.31 430.74 360.80 430.83 C 360.77 339.22 360.78 247.60 360.76 155.99 C 360.78 152.34 360.60 148.69 360.91 145.06 Z" />
<path fill="#ffffff" opacity="1.00" d=" M 472.46 151.74 C 478.69 150.58 485.54 150.65 491.28 153.66 C 498.73 157.52 504.52 164.71 506.15 173.00 C 508.24 182.99 504.71 194.20 496.46 200.45 C 487.11 208.17 472.51 208.56 462.86 201.17 C 451.70 193.33 448.13 176.81 455.06 165.05 C 458.75 158.50 465.15 153.53 472.46 151.74 Z" />
<path fill="#ffffff" opacity="1.00" d=" M 686.02 236.79 C 693.40 228.14 700.61 219.35 707.93 210.66 C 720.54 220.68 733.00 230.90 745.53 241.03 C 738.21 250.43 730.21 259.31 723.18 268.93 C 743.58 298.22 748.58 338.16 734.02 370.99 C 727.21 386.91 716.10 400.85 702.44 411.44 C 692.48 419.86 681.98 427.62 672.03 436.05 C 667.81 439.76 662.76 443.92 662.58 450.02 C 662.89 454.44 666.26 457.79 669.24 460.74 C 676.55 467.50 684.75 473.20 692.35 479.63 C 699.69 485.96 707.93 491.26 714.46 498.49 C 741.20 526.33 749.71 569.83 736.13 605.86 C 730.52 620.94 721.59 634.79 709.96 645.93 C 697.38 657.78 681.84 666.50 665.08 670.79 C 643.13 676.85 619.28 674.51 598.45 665.60 C 582.56 658.36 568.15 647.44 557.71 633.37 C 547.75 620.74 541.27 605.57 538.19 589.83 C 534.49 572.39 536.00 554.08 541.27 537.12 C 547.46 517.71 559.77 500.29 576.03 487.99 C 583.90 481.89 591.38 475.31 599.33 469.31 C 604.13 465.46 609.20 461.81 613.10 456.99 C 615.51 454.02 616.80 449.68 615.08 446.06 C 613.20 441.86 609.77 438.61 606.33 435.67 C 597.73 428.62 589.05 421.68 580.47 414.60 C 573.94 409.13 566.85 404.14 561.51 397.40 C 549.75 384.00 541.37 367.54 538.18 349.96 C 530.76 313.85 544.64 274.45 572.51 250.47 C 584.89 239.86 599.85 232.40 615.62 228.40 C 639.08 222.59 664.58 225.61 686.02 236.79 M 634.09 277.11 C 621.64 278.26 609.83 284.24 601.28 293.31 C 591.04 304.07 585.78 319.26 587.23 334.05 C 588.42 349.57 596.87 364.42 609.74 373.22 C 619.06 379.75 630.61 382.90 641.95 382.39 C 656.34 381.62 670.41 374.76 679.55 363.56 C 689.09 352.54 693.39 337.30 691.21 322.91 C 689.33 307.05 679.66 292.30 665.94 284.16 C 656.50 278.32 645.08 276.04 634.09 277.11 M 627.54 517.80 C 613.63 521.29 601.06 530.47 593.98 543.00 C 586.29 556.11 584.71 572.64 589.85 586.95 C 595.29 603.56 609.65 616.92 626.65 621.00 C 637.77 623.79 649.72 622.59 660.29 618.25 C 672.12 613.31 681.59 603.53 687.01 592.00 C 692.71 580.06 693.12 566.00 689.45 553.41 C 685.26 540.53 676.17 529.11 664.06 522.87 C 653.10 516.62 639.78 515.07 627.54 517.80 Z" />
<path fill="#ffffff" opacity="1.00" d=" M 851.52 226.78 C 872.96 223.89 895.21 228.38 914.06 238.92 C 928.92 247.47 941.99 259.39 951.17 273.92 C 969.52 302.70 973.04 340.70 959.02 371.98 C 945.48 404.96 913.32 429.15 878.05 433.75 C 864.02 435.77 849.59 434.54 836.02 430.51 C 816.92 425.43 800.00 413.72 786.93 399.09 C 769.53 379.53 760.49 353.07 761.30 326.99 C 761.87 307.25 768.43 287.82 779.35 271.41 C 795.60 247.15 822.57 230.54 851.52 226.78 M 855.19 278.12 C 834.96 281.65 817.53 298.16 813.54 318.40 C 808.82 338.48 816.76 361.20 833.75 373.17 C 846.77 382.89 864.50 385.66 879.95 380.76 C 892.48 376.98 903.32 368.14 909.70 356.72 C 917.27 343.99 918.47 328.01 913.99 314.00 C 909.96 300.45 899.80 289.21 887.31 282.84 C 877.55 277.57 866.02 276.42 855.19 278.12 Z" />
<path fill="#ffffff" opacity="1.00" d=" M 457.02 239.97 C 462.52 228.42 477.79 223.19 489.29 228.69 C 497.73 232.17 503.22 240.94 503.63 249.92 C 503.78 310.22 503.61 370.52 503.70 430.82 C 487.21 430.71 470.73 430.73 454.24 430.81 C 454.39 374.22 454.34 317.64 454.30 261.05 C 454.35 253.98 453.37 246.40 457.02 239.97 Z" />
</g>
<g id="#784799ff">
<path fill="#784799" opacity="1.00" d=" M 132.21 21.35 C 136.44 20.70 140.72 20.52 144.99 20.52 C 486.98 20.54 828.97 20.53 1170.96 20.52 C 1180.39 20.60 1189.91 20.11 1199.25 21.77 C 1234.72 27.66 1264.91 57.32 1270.79 92.89 C 1273.28 105.10 1272.22 117.60 1272.47 129.97 C 1272.48 313.65 1272.40 497.32 1272.42 681.00 C 1272.59 688.66 1272.34 696.33 1270.91 703.88 C 1267.52 723.06 1257.33 740.85 1243.01 753.98 C 1227.83 767.96 1207.67 776.70 1186.99 777.37 C 841.34 777.45 495.70 777.40 150.05 777.41 C 144.16 777.33 138.22 777.60 132.40 776.49 C 98.14 771.61 68.40 744.78 59.53 711.40 C 55.04 696.68 56.40 681.16 56.22 666.00 C 56.18 480.66 56.19 295.33 56.20 110.00 C 55.87 86.89 65.11 63.76 81.44 47.38 C 94.76 33.28 113.04 24.08 132.21 21.35 M 360.91 145.06 C 360.60 148.69 360.78 152.34 360.76 155.99 C 360.78 247.60 360.77 339.22 360.80 430.83 C 377.31 430.74 393.82 430.71 410.33 430.87 C 410.08 336.93 410.30 243.00 410.18 149.06 C 410.13 144.70 409.57 140.24 407.61 136.30 C 403.53 127.42 393.75 121.78 384.02 122.57 C 372.13 122.85 361.74 133.30 360.91 145.06 M 472.46 151.74 C 465.15 153.53 458.75 158.50 455.06 165.05 C 448.13 176.81 451.70 193.33 462.86 201.17 C 472.51 208.56 487.11 208.17 496.46 200.45 C 504.71 194.20 508.24 182.99 506.15 173.00 C 504.52 164.71 498.73 157.52 491.28 153.66 C 485.54 150.65 478.69 150.58 472.46 151.74 M 686.02 236.79 C 664.58 225.61 639.08 222.59 615.62 228.40 C 599.85 232.40 584.89 239.86 572.51 250.47 C 544.64 274.45 530.76 313.85 538.18 349.96 C 541.37 367.54 549.75 384.00 561.51 397.40 C 566.85 404.14 573.94 409.13 580.47 414.60 C 589.05 421.68 597.73 428.62 606.33 435.67 C 609.77 438.61 613.20 441.86 615.08 446.06 C 616.80 449.68 615.51 454.02 613.10 456.99 C 609.20 461.81 604.13 465.46 599.33 469.31 C 591.38 475.31 583.90 481.89 576.03 487.99 C 559.77 500.29 547.46 517.71 541.27 537.12 C 536.00 554.08 534.49 572.39 538.19 589.83 C 541.27 605.57 547.75 620.74 557.71 633.37 C 568.15 647.44 582.56 658.36 598.45 665.60 C 619.28 674.51 643.13 676.85 665.08 670.79 C 681.84 666.50 697.38 657.78 709.96 645.93 C 721.59 634.79 730.52 620.94 736.13 605.86 C 749.71 569.83 741.20 526.33 714.46 498.49 C 707.93 491.26 699.69 485.96 692.35 479.63 C 684.75 473.20 676.55 467.50 669.24 460.74 C 666.26 457.79 662.89 454.44 662.58 450.02 C 662.76 443.92 667.81 439.76 672.03 436.05 C 681.98 427.62 692.48 419.86 702.44 411.44 C 716.10 400.85 727.21 386.91 734.02 370.99 C 748.58 338.16 743.58 298.22 723.18 268.93 C 730.21 259.31 738.21 250.43 745.53 241.03 C 733.00 230.90 720.54 220.68 707.93 210.66 C 700.61 219.35 693.40 228.14 686.02 236.79 M 851.52 226.78 C 822.57 230.54 795.60 247.15 779.35 271.41 C 768.43 287.82 761.87 307.25 761.30 326.99 C 760.49 353.07 769.53 379.53 786.93 399.09 C 800.00 413.72 816.92 425.43 836.02 430.51 C 849.59 434.54 864.02 435.77 878.05 433.75 C 913.32 429.15 945.48 404.96 959.02 371.98 C 973.04 340.70 969.52 302.70 951.17 273.92 C 941.99 259.39 928.92 247.47 914.06 238.92 C 895.21 228.38 872.96 223.89 851.52 226.78 M 457.02 239.97 C 453.37 246.40 454.35 253.98 454.30 261.05 C 454.34 317.64 454.39 374.22 454.24 430.81 C 470.73 430.73 487.21 430.71 503.70 430.82 C 503.61 370.52 503.78 310.22 503.63 249.92 C 503.22 240.94 497.73 232.17 489.29 228.69 C 477.79 223.19 462.52 228.42 457.02 239.97 Z" />
<path fill="#784799" opacity="1.00" d=" M 634.09 277.11 C 645.08 276.04 656.50 278.32 665.94 284.16 C 679.66 292.30 689.33 307.05 691.21 322.91 C 693.39 337.30 689.09 352.54 679.55 363.56 C 670.41 374.76 656.34 381.62 641.95 382.39 C 630.61 382.90 619.06 379.75 609.74 373.22 C 596.87 364.42 588.42 349.57 587.23 334.05 C 585.78 319.26 591.04 304.07 601.28 293.31 C 609.83 284.24 621.64 278.26 634.09 277.11 Z" />
<path fill="#784799" opacity="1.00" d=" M 855.19 278.12 C 866.02 276.42 877.55 277.57 887.31 282.84 C 899.80 289.21 909.96 300.45 913.99 314.00 C 918.47 328.01 917.27 343.99 909.70 356.72 C 903.32 368.14 892.48 376.98 879.95 380.76 C 864.50 385.66 846.77 382.89 833.75 373.17 C 816.76 361.20 808.82 338.48 813.54 318.40 C 817.53 298.16 834.96 281.65 855.19 278.12 Z" />
<path fill="#784799" opacity="1.00" d=" M 627.54 517.80 C 639.78 515.07 653.10 516.62 664.06 522.87 C 676.17 529.11 685.26 540.53 689.45 553.41 C 693.12 566.00 692.71 580.06 687.01 592.00 C 681.59 603.53 672.12 613.31 660.29 618.25 C 649.72 622.59 637.77 623.79 626.65 621.00 C 609.65 616.92 595.29 603.56 589.85 586.95 C 584.71 572.64 586.29 556.11 593.98 543.00 C 601.06 530.47 613.63 521.29 627.54 517.80 Z" />
</g>
</svg>
